<mxfile host="Electron" modified="2024-02-08T14:18:29.891Z" agent="Mozilla/5.0 (Windows NT 10.0; Win64; x64) AppleWebKit/537.36 (KHTML, like Gecko) draw.io/23.0.2 Chrome/120.0.6099.109 Electron/28.1.0 Safari/537.36" etag="Q7qgHdS1qsIR1dnhaRFs" version="23.0.2" type="device" pages="4">
  <diagram name="Page-1" id="74e2e168-ea6b-b213-b513-2b3c1d86103e">
    <mxGraphModel dx="1434" dy="844" grid="0" gridSize="10" guides="1" tooltips="1" connect="1" arrows="1" fold="1" page="1" pageScale="1" pageWidth="1169" pageHeight="827" background="none" math="0" shadow="0">
      <root>
        <mxCell id="0" />
        <mxCell id="1" parent="0" />
        <mxCell id="-_WrZxo8teuH3BvchVDA-6" value="Fixed number of clusters" style="swimlane;whiteSpace=wrap;html=1;strokeWidth=2;glass=0;comic=0;fillColor=#f5f5f5;strokeColor=#666666;swimlaneFillColor=#f5f5f5;labelBackgroundColor=none;backgroundOutline=0;rounded=1;fontColor=#333333;swimlaneHead=0;swimlaneBody=0;container=0;" parent="1" vertex="1">
          <mxGeometry x="232" y="105" width="330" height="320" as="geometry" />
        </mxCell>
        <mxCell id="-_WrZxo8teuH3BvchVDA-52" value="" style="edgeStyle=orthogonalEdgeStyle;rounded=0;orthogonalLoop=1;jettySize=auto;html=1;strokeColor=#666666;strokeWidth=2;" parent="-_WrZxo8teuH3BvchVDA-6" source="-_WrZxo8teuH3BvchVDA-8" target="-_WrZxo8teuH3BvchVDA-10" edge="1">
          <mxGeometry relative="1" as="geometry" />
        </mxCell>
        <mxCell id="-_WrZxo8teuH3BvchVDA-8" value="Multilevel model fitting and extraction of estimates&amp;nbsp;" style="rounded=1;whiteSpace=wrap;html=1;absoluteArcSize=1;arcSize=14;strokeWidth=1;enumerate=0;enumerateValue=2;strokeColor=#666666;" parent="-_WrZxo8teuH3BvchVDA-6" vertex="1">
          <mxGeometry x="100" y="142" width="130" height="70" as="geometry" />
        </mxCell>
        <mxCell id="-_WrZxo8teuH3BvchVDA-10" value="Calculation of AAFBF and extraction of Bayes factor and PMP" style="rounded=1;whiteSpace=wrap;html=1;absoluteArcSize=1;arcSize=14;strokeWidth=1;enumerate=0;enumerateValue=3;strokeColor=#666666;" parent="-_WrZxo8teuH3BvchVDA-6" vertex="1">
          <mxGeometry x="100" y="240" width="130" height="70" as="geometry" />
        </mxCell>
        <mxCell id="-_WrZxo8teuH3BvchVDA-81" value="2" style="shape=ellipse;html=1;dashed=0;whiteSpace=wrap;perimeter=ellipsePerimeter;fillColor=#b0e3e6;strokeColor=#0e8088;rounded=0;" parent="-_WrZxo8teuH3BvchVDA-6" vertex="1">
          <mxGeometry x="108" y="191" width="20" height="20" as="geometry" />
        </mxCell>
        <mxCell id="-_WrZxo8teuH3BvchVDA-83" value="3" style="shape=ellipse;html=1;dashed=0;whiteSpace=wrap;perimeter=ellipsePerimeter;fillColor=#b0e3e6;strokeColor=#0e8088;rounded=0;" parent="-_WrZxo8teuH3BvchVDA-6" vertex="1">
          <mxGeometry x="104" y="289" width="20" height="20" as="geometry" />
        </mxCell>
        <mxCell id="-_WrZxo8teuH3BvchVDA-7" value="Fixed cluster size" style="swimlane;whiteSpace=wrap;html=1;strokeWidth=2;fillColor=#BAC8D3;strokeColor=#23445d;rounded=1;swimlaneFillColor=#bac8d3;swimlaneBody=0;swimlaneHead=0;container=0;" parent="1" vertex="1">
          <mxGeometry x="607" y="105" width="330" height="320" as="geometry" />
        </mxCell>
        <mxCell id="-_WrZxo8teuH3BvchVDA-53" value="" style="edgeStyle=orthogonalEdgeStyle;rounded=0;orthogonalLoop=1;jettySize=auto;html=1;strokeColor=#23445d;strokeWidth=2;" parent="-_WrZxo8teuH3BvchVDA-7" source="-_WrZxo8teuH3BvchVDA-9" target="-_WrZxo8teuH3BvchVDA-11" edge="1">
          <mxGeometry relative="1" as="geometry" />
        </mxCell>
        <mxCell id="-_WrZxo8teuH3BvchVDA-9" value="Multilevel model fitting and extraction of estimates&amp;nbsp;" style="rounded=1;whiteSpace=wrap;html=1;absoluteArcSize=1;arcSize=14;strokeWidth=1;enumerate=0;enumerateValue=2;strokeColor=#23445d;" parent="-_WrZxo8teuH3BvchVDA-7" vertex="1">
          <mxGeometry x="100" y="142" width="130" height="70" as="geometry" />
        </mxCell>
        <mxCell id="-_WrZxo8teuH3BvchVDA-11" value="Calculation of AAFBF and extraction of Bayes factor and PMP" style="rounded=1;whiteSpace=wrap;html=1;absoluteArcSize=1;arcSize=14;strokeWidth=1;enumerate=0;enumerateValue=3;strokeColor=#23445d;" parent="-_WrZxo8teuH3BvchVDA-7" vertex="1">
          <mxGeometry x="100" y="239" width="130" height="70" as="geometry" />
        </mxCell>
        <mxCell id="-_WrZxo8teuH3BvchVDA-2" value="Generation of n datasets when H&lt;sub&gt;0 &lt;/sub&gt;is true" style="rounded=1;whiteSpace=wrap;html=1;absoluteArcSize=1;arcSize=14;strokeWidth=1;enumerate=0;enumerateValue=1;strokeColor=#666666;" parent="-_WrZxo8teuH3BvchVDA-7" vertex="1">
          <mxGeometry x="-354" y="45" width="120" height="60" as="geometry" />
        </mxCell>
        <mxCell id="-_WrZxo8teuH3BvchVDA-5" value="Generation of n datasets when H&lt;sub&gt;1&amp;nbsp;&lt;/sub&gt;is true" style="rounded=1;whiteSpace=wrap;html=1;absoluteArcSize=1;arcSize=14;strokeWidth=1;enumerate=0;enumerateValue=1;strokeColor=#666666;" parent="-_WrZxo8teuH3BvchVDA-7" vertex="1">
          <mxGeometry x="-184" y="45" width="120" height="60" as="geometry" />
        </mxCell>
        <mxCell id="-_WrZxo8teuH3BvchVDA-4" value="Generation of n datasets when H&lt;sub&gt;0 &lt;/sub&gt;is true" style="rounded=1;whiteSpace=wrap;html=1;absoluteArcSize=1;arcSize=14;strokeWidth=1;enumerate=0;enumerateValue=1;strokeColor=#23445d;" parent="-_WrZxo8teuH3BvchVDA-7" vertex="1">
          <mxGeometry x="19" y="45" width="120" height="60" as="geometry" />
        </mxCell>
        <mxCell id="-_WrZxo8teuH3BvchVDA-3" value="Generation of n datasets when H&lt;sub&gt;1&amp;nbsp;&lt;/sub&gt;is true" style="rounded=1;whiteSpace=wrap;html=1;absoluteArcSize=1;arcSize=14;strokeWidth=1;enumerate=0;enumerateValue=1;strokeColor=#23445d;" parent="-_WrZxo8teuH3BvchVDA-7" vertex="1">
          <mxGeometry x="189" y="45" width="120" height="60" as="geometry" />
        </mxCell>
        <mxCell id="-_WrZxo8teuH3BvchVDA-58" value="" style="edgeStyle=orthogonalEdgeStyle;rounded=0;orthogonalLoop=1;jettySize=auto;html=1;exitX=0.558;exitY=1.017;exitDx=0;exitDy=0;exitPerimeter=0;strokeColor=#23445d;strokeWidth=2;" parent="-_WrZxo8teuH3BvchVDA-7" source="-_WrZxo8teuH3BvchVDA-3" edge="1">
          <mxGeometry relative="1" as="geometry">
            <mxPoint x="259" y="102" as="sourcePoint" />
            <mxPoint x="163" y="142" as="targetPoint" />
            <Array as="points">
              <mxPoint x="256" y="125" />
              <mxPoint x="163" y="125" />
            </Array>
          </mxGeometry>
        </mxCell>
        <mxCell id="-_WrZxo8teuH3BvchVDA-59" value="" style="edgeStyle=orthogonalEdgeStyle;rounded=0;orthogonalLoop=1;jettySize=auto;html=1;strokeColor=#23445d;strokeWidth=2;" parent="-_WrZxo8teuH3BvchVDA-7" edge="1">
          <mxGeometry relative="1" as="geometry">
            <mxPoint x="72" y="105" as="sourcePoint" />
            <mxPoint x="163" y="142" as="targetPoint" />
            <Array as="points">
              <mxPoint x="72" y="125" />
              <mxPoint x="163" y="125" />
            </Array>
          </mxGeometry>
        </mxCell>
        <mxCell id="-_WrZxo8teuH3BvchVDA-77" value="1" style="shape=ellipse;html=1;dashed=0;whiteSpace=wrap;perimeter=ellipsePerimeter;fillColor=#b0e3e6;strokeColor=#0e8088;fontStyle=0;rounded=0;" parent="-_WrZxo8teuH3BvchVDA-7" vertex="1">
          <mxGeometry x="-347" y="84" width="20" height="20" as="geometry" />
        </mxCell>
        <mxCell id="-_WrZxo8teuH3BvchVDA-79" value="1" style="shape=ellipse;html=1;dashed=0;whiteSpace=wrap;perimeter=ellipsePerimeter;fillColor=#b0e3e6;strokeColor=#0e8088;rounded=0;" parent="-_WrZxo8teuH3BvchVDA-7" vertex="1">
          <mxGeometry x="27" y="84" width="20" height="20" as="geometry" />
        </mxCell>
        <mxCell id="-_WrZxo8teuH3BvchVDA-78" value="1" style="shape=ellipse;html=1;dashed=0;whiteSpace=wrap;perimeter=ellipsePerimeter;fillColor=#b0e3e6;strokeColor=#0e8088;rounded=0;" parent="-_WrZxo8teuH3BvchVDA-7" vertex="1">
          <mxGeometry x="199" y="84" width="20" height="20" as="geometry" />
        </mxCell>
        <mxCell id="-_WrZxo8teuH3BvchVDA-82" value="2" style="shape=ellipse;html=1;dashed=0;whiteSpace=wrap;perimeter=ellipsePerimeter;fillColor=#b0e3e6;strokeColor=#0e8088;rounded=0;" parent="-_WrZxo8teuH3BvchVDA-7" vertex="1">
          <mxGeometry x="108" y="191" width="20" height="20" as="geometry" />
        </mxCell>
        <mxCell id="-_WrZxo8teuH3BvchVDA-84" value="3" style="shape=ellipse;html=1;dashed=0;whiteSpace=wrap;perimeter=ellipsePerimeter;fillColor=#b0e3e6;strokeColor=#0e8088;rounded=0;" parent="-_WrZxo8teuH3BvchVDA-7" vertex="1">
          <mxGeometry x="104" y="288" width="20" height="20" as="geometry" />
        </mxCell>
        <mxCell id="-_WrZxo8teuH3BvchVDA-22" value="No" style="edgeStyle=orthogonalEdgeStyle;rounded=0;orthogonalLoop=1;jettySize=auto;html=1;exitX=0;exitY=0.5;exitDx=0;exitDy=0;exitPerimeter=0;fontSize=15;strokeColor=#666666;strokeWidth=2;" parent="1" source="-_WrZxo8teuH3BvchVDA-12" target="-_WrZxo8teuH3BvchVDA-13" edge="1">
          <mxGeometry relative="1" as="geometry" />
        </mxCell>
        <mxCell id="-_WrZxo8teuH3BvchVDA-23" value="No" style="edgeStyle=orthogonalEdgeStyle;rounded=0;orthogonalLoop=1;jettySize=auto;html=1;fontSize=15;entryX=0;entryY=0.5;entryDx=0;entryDy=0;strokeColor=#23445d;strokeWidth=2;" parent="1" source="-_WrZxo8teuH3BvchVDA-12" target="gkjcnKWSa4nMXM1vfR7n-1" edge="1">
          <mxGeometry relative="1" as="geometry">
            <mxPoint x="1040" y="540" as="targetPoint" />
          </mxGeometry>
        </mxCell>
        <mxCell id="-_WrZxo8teuH3BvchVDA-12" value="Is the power criterion met?&lt;br&gt;P(BF&amp;gt;BF&lt;sub&gt;thresh&lt;/sub&gt;|H&lt;sub&gt;0&lt;/sub&gt;) ≥ η&lt;br&gt;P(BF&amp;gt;BF&lt;sub style=&quot;border-color: var(--border-color);&quot;&gt;thresh&lt;/sub&gt;|H&lt;span style=&quot;font-size: 10px;&quot;&gt;&lt;sub&gt;1&lt;/sub&gt;&lt;/span&gt;) ≥ η" style="strokeWidth=1;html=1;shape=mxgraph.flowchart.decision;whiteSpace=wrap;enumerate=0;enumerateValue=4;shadow=0;rounded=0;" parent="1" vertex="1">
          <mxGeometry x="452" y="465" width="260" height="120" as="geometry" />
        </mxCell>
        <mxCell id="-_WrZxo8teuH3BvchVDA-13" value="Update the cluster size with binary search algorithm" style="rounded=1;whiteSpace=wrap;html=1;absoluteArcSize=1;arcSize=14;strokeWidth=1;enumerate=0;enumerateValue=5;strokeColor=#666666;" parent="1" vertex="1">
          <mxGeometry x="10" y="485" width="100" height="80" as="geometry" />
        </mxCell>
        <mxCell id="-_WrZxo8teuH3BvchVDA-29" style="edgeStyle=orthogonalEdgeStyle;rounded=0;orthogonalLoop=1;jettySize=auto;html=1;entryX=1;entryY=0.5;entryDx=0;entryDy=0;exitX=0.5;exitY=0;exitDx=0;exitDy=0;strokeColor=#23445d;strokeWidth=2;" parent="1" source="gkjcnKWSa4nMXM1vfR7n-1" target="-_WrZxo8teuH3BvchVDA-3" edge="1">
          <mxGeometry relative="1" as="geometry">
            <Array as="points">
              <mxPoint x="1100" y="180" />
            </Array>
            <mxPoint x="1100" y="450" as="sourcePoint" />
          </mxGeometry>
        </mxCell>
        <mxCell id="-_WrZxo8teuH3BvchVDA-24" value="No" style="edgeStyle=orthogonalEdgeStyle;rounded=0;orthogonalLoop=1;jettySize=auto;html=1;entryX=1;entryY=0.5;entryDx=0;entryDy=0;fontSize=15;strokeColor=#666666;strokeWidth=2;" parent="1" source="-_WrZxo8teuH3BvchVDA-15" target="-_WrZxo8teuH3BvchVDA-16" edge="1">
          <mxGeometry relative="1" as="geometry">
            <mxPoint x="232" y="682" as="targetPoint" />
          </mxGeometry>
        </mxCell>
        <mxCell id="-_WrZxo8teuH3BvchVDA-25" value="No" style="edgeStyle=orthogonalEdgeStyle;rounded=0;orthogonalLoop=1;jettySize=auto;html=1;entryX=0;entryY=0.5;entryDx=0;entryDy=0;fontSize=15;strokeColor=#23445d;strokeWidth=2;" parent="1" source="-_WrZxo8teuH3BvchVDA-15" target="-_WrZxo8teuH3BvchVDA-17" edge="1">
          <mxGeometry x="0.004" relative="1" as="geometry">
            <mxPoint as="offset" />
          </mxGeometry>
        </mxCell>
        <mxCell id="-_WrZxo8teuH3BvchVDA-67" value="Yes" style="edgeStyle=orthogonalEdgeStyle;rounded=0;orthogonalLoop=1;jettySize=auto;html=1;strokeWidth=2;fontSize=14;" parent="1" source="-_WrZxo8teuH3BvchVDA-15" target="-_WrZxo8teuH3BvchVDA-66" edge="1">
          <mxGeometry relative="1" as="geometry" />
        </mxCell>
        <mxCell id="-_WrZxo8teuH3BvchVDA-15" value="Is the sensitivity analysis finished?" style="strokeWidth=1;html=1;shape=mxgraph.flowchart.decision;whiteSpace=wrap;enumerate=0;rounded=0;" parent="1" vertex="1">
          <mxGeometry x="467" y="622" width="230" height="120" as="geometry" />
        </mxCell>
        <mxCell id="-_WrZxo8teuH3BvchVDA-26" style="edgeStyle=orthogonalEdgeStyle;rounded=0;orthogonalLoop=1;jettySize=auto;html=1;jumpStyle=gap;strokeColor=#666666;strokeWidth=2;" parent="1" edge="1">
          <mxGeometry relative="1" as="geometry">
            <mxPoint x="160" y="661" as="sourcePoint" />
            <mxPoint x="330" y="380" as="targetPoint" />
            <Array as="points">
              <mxPoint x="160" y="380" />
            </Array>
          </mxGeometry>
        </mxCell>
        <mxCell id="-_WrZxo8teuH3BvchVDA-16" value="Increase fraction of information (b)&lt;br&gt;" style="rounded=1;whiteSpace=wrap;html=1;absoluteArcSize=1;arcSize=14;strokeWidth=1;enumerate=0;enumerateValue=6;strokeColor=#666666;" parent="1" vertex="1">
          <mxGeometry x="110" y="649.5" width="100" height="65" as="geometry" />
        </mxCell>
        <mxCell id="-_WrZxo8teuH3BvchVDA-28" style="edgeStyle=orthogonalEdgeStyle;rounded=0;orthogonalLoop=1;jettySize=auto;html=1;entryX=1;entryY=0.5;entryDx=0;entryDy=0;jumpStyle=gap;strokeColor=#23445d;strokeWidth=2;" parent="1" source="-_WrZxo8teuH3BvchVDA-17" target="-_WrZxo8teuH3BvchVDA-11" edge="1">
          <mxGeometry relative="1" as="geometry">
            <Array as="points">
              <mxPoint x="1000" y="379" />
            </Array>
          </mxGeometry>
        </mxCell>
        <mxCell id="-_WrZxo8teuH3BvchVDA-17" value="Increase fraction of information (b)&lt;br&gt;" style="rounded=1;whiteSpace=wrap;html=1;absoluteArcSize=1;arcSize=14;strokeWidth=1;enumerate=0;enumerateValue=6;strokeColor=#23445d;" parent="1" vertex="1">
          <mxGeometry x="950" y="649.5" width="100" height="65" as="geometry" />
        </mxCell>
        <mxCell id="-_WrZxo8teuH3BvchVDA-31" value="Yes" style="edgeStyle=orthogonalEdgeStyle;rounded=0;orthogonalLoop=1;jettySize=auto;html=1;entryX=0.5;entryY=0;entryDx=0;entryDy=0;entryPerimeter=0;strokeWidth=2;fontSize=14;" parent="1" source="-_WrZxo8teuH3BvchVDA-12" target="-_WrZxo8teuH3BvchVDA-15" edge="1">
          <mxGeometry relative="1" as="geometry" />
        </mxCell>
        <mxCell id="-_WrZxo8teuH3BvchVDA-54" value="" style="edgeStyle=orthogonalEdgeStyle;rounded=0;orthogonalLoop=1;jettySize=auto;html=1;strokeColor=#666666;strokeWidth=2;" parent="1" source="-_WrZxo8teuH3BvchVDA-2" target="-_WrZxo8teuH3BvchVDA-8" edge="1">
          <mxGeometry relative="1" as="geometry">
            <Array as="points">
              <mxPoint x="313" y="230" />
              <mxPoint x="397" y="230" />
            </Array>
          </mxGeometry>
        </mxCell>
        <mxCell id="-_WrZxo8teuH3BvchVDA-55" value="" style="edgeStyle=orthogonalEdgeStyle;rounded=0;orthogonalLoop=1;jettySize=auto;html=1;exitX=0.5;exitY=1;exitDx=0;exitDy=0;entryX=0.5;entryY=0;entryDx=0;entryDy=0;strokeColor=#666666;strokeWidth=2;" parent="1" edge="1">
          <mxGeometry relative="1" as="geometry">
            <mxPoint x="483" y="210" as="sourcePoint" />
            <mxPoint x="397" y="247" as="targetPoint" />
            <Array as="points">
              <mxPoint x="483" y="230" />
              <mxPoint x="397" y="230" />
            </Array>
          </mxGeometry>
        </mxCell>
        <mxCell id="-_WrZxo8teuH3BvchVDA-64" style="edgeStyle=orthogonalEdgeStyle;rounded=0;orthogonalLoop=1;jettySize=auto;html=1;strokeWidth=2;" parent="1" source="-_WrZxo8teuH3BvchVDA-63" target="-_WrZxo8teuH3BvchVDA-6" edge="1">
          <mxGeometry relative="1" as="geometry" />
        </mxCell>
        <mxCell id="-_WrZxo8teuH3BvchVDA-65" style="edgeStyle=orthogonalEdgeStyle;rounded=0;orthogonalLoop=1;jettySize=auto;html=1;strokeWidth=2;" parent="1" source="-_WrZxo8teuH3BvchVDA-63" target="-_WrZxo8teuH3BvchVDA-7" edge="1">
          <mxGeometry relative="1" as="geometry" />
        </mxCell>
        <mxCell id="-_WrZxo8teuH3BvchVDA-63" value="&lt;h4&gt;User input&lt;/h4&gt;" style="html=1;dashed=0;whiteSpace=wrap;shape=mxgraph.dfd.start;rounded=0;fillColor=#647687;fontColor=#ffffff;strokeColor=#314354;" parent="1" vertex="1">
          <mxGeometry x="542" y="10" width="80" height="30" as="geometry" />
        </mxCell>
        <mxCell id="-_WrZxo8teuH3BvchVDA-66" value="&lt;h4&gt;Print final sample size&lt;/h4&gt;" style="html=1;dashed=0;whiteSpace=wrap;shape=mxgraph.dfd.start;rounded=0;fillColor=#647687;fontColor=#ffffff;strokeColor=#314354;" parent="1" vertex="1">
          <mxGeometry x="542" y="780" width="80" height="30" as="geometry" />
        </mxCell>
        <mxCell id="-_WrZxo8teuH3BvchVDA-70" style="edgeStyle=orthogonalEdgeStyle;rounded=0;orthogonalLoop=1;jettySize=auto;html=1;strokeColor=#23445d;strokeWidth=2;" parent="1" source="-_WrZxo8teuH3BvchVDA-11" target="-_WrZxo8teuH3BvchVDA-12" edge="1">
          <mxGeometry relative="1" as="geometry">
            <Array as="points">
              <mxPoint x="772" y="440" />
              <mxPoint x="582" y="440" />
            </Array>
          </mxGeometry>
        </mxCell>
        <mxCell id="-_WrZxo8teuH3BvchVDA-71" style="edgeStyle=orthogonalEdgeStyle;rounded=0;orthogonalLoop=1;jettySize=auto;html=1;entryX=0.5;entryY=0;entryDx=0;entryDy=0;entryPerimeter=0;strokeWidth=2;strokeColor=#666666;" parent="1" source="-_WrZxo8teuH3BvchVDA-10" target="-_WrZxo8teuH3BvchVDA-12" edge="1">
          <mxGeometry relative="1" as="geometry" />
        </mxCell>
        <mxCell id="-_WrZxo8teuH3BvchVDA-80" value="1" style="shape=ellipse;html=1;dashed=0;whiteSpace=wrap;perimeter=ellipsePerimeter;fillColor=#b0e3e6;strokeColor=#0e8088;rounded=0;" parent="1" vertex="1">
          <mxGeometry x="430" y="189" width="20" height="20" as="geometry" />
        </mxCell>
        <mxCell id="-_WrZxo8teuH3BvchVDA-85" value="4" style="shape=ellipse;html=1;dashed=0;whiteSpace=wrap;perimeter=ellipsePerimeter;fillColor=#b0e3e6;strokeColor=#0e8088;rounded=0;" parent="1" vertex="1">
          <mxGeometry x="572" y="480" width="20" height="20" as="geometry" />
        </mxCell>
        <mxCell id="-_WrZxo8teuH3BvchVDA-86" value="5" style="shape=ellipse;html=1;dashed=0;whiteSpace=wrap;perimeter=ellipsePerimeter;fillColor=#b0e3e6;strokeColor=#0e8088;rounded=0;" parent="1" vertex="1">
          <mxGeometry x="15" y="545" width="20" height="20" as="geometry" />
        </mxCell>
        <mxCell id="-_WrZxo8teuH3BvchVDA-87" value="6" style="shape=ellipse;html=1;dashed=0;whiteSpace=wrap;perimeter=ellipsePerimeter;fillColor=#b0e3e6;strokeColor=#0e8088;rounded=0;" parent="1" vertex="1">
          <mxGeometry x="116" y="695.5" width="20" height="20" as="geometry" />
        </mxCell>
        <mxCell id="-_WrZxo8teuH3BvchVDA-88" value="6" style="shape=ellipse;html=1;dashed=0;whiteSpace=wrap;perimeter=ellipsePerimeter;fillColor=#b0e3e6;strokeColor=#0e8088;rounded=0;" parent="1" vertex="1">
          <mxGeometry x="957" y="695.5" width="20" height="20" as="geometry" />
        </mxCell>
        <mxCell id="gkjcnKWSa4nMXM1vfR7n-1" value="Update the number of cluster with binary search algorithm" style="rounded=1;whiteSpace=wrap;html=1;absoluteArcSize=1;arcSize=14;strokeWidth=1;enumerate=0;enumerateValue=5;strokeColor=#23445d;" parent="1" vertex="1">
          <mxGeometry x="1050" y="485" width="100" height="80" as="geometry" />
        </mxCell>
        <mxCell id="gkjcnKWSa4nMXM1vfR7n-2" value="5" style="shape=ellipse;html=1;dashed=0;whiteSpace=wrap;perimeter=ellipsePerimeter;fillColor=#b0e3e6;strokeColor=#0e8088;rounded=0;" parent="1" vertex="1">
          <mxGeometry x="1054" y="544" width="20" height="20" as="geometry" />
        </mxCell>
        <mxCell id="VgkQQyjK16bl-aLK0k5A-19" value="" style="edgeStyle=orthogonalEdgeStyle;rounded=0;orthogonalLoop=1;jettySize=auto;html=1;entryX=0;entryY=0.5;entryDx=0;entryDy=0;strokeColor=#666666;strokeWidth=2;" parent="1" source="-_WrZxo8teuH3BvchVDA-13" target="-_WrZxo8teuH3BvchVDA-2" edge="1">
          <mxGeometry relative="1" as="geometry">
            <Array as="points">
              <mxPoint x="60" y="180" />
            </Array>
            <mxPoint x="60" y="485" as="sourcePoint" />
            <mxPoint x="155" y="189" as="targetPoint" />
          </mxGeometry>
        </mxCell>
      </root>
    </mxGraphModel>
  </diagram>
  <diagram id="TE2C92YClyaY3yHBZgQ6" name="Page-2">
    <mxGraphModel dx="1434" dy="844" grid="1" gridSize="10" guides="1" tooltips="1" connect="1" arrows="1" fold="1" page="1" pageScale="1" pageWidth="1169" pageHeight="827" math="0" shadow="0">
      <root>
        <mxCell id="0" />
        <mxCell id="1" parent="0" />
        <mxCell id="pisMNLT7LliLQh7mAFiL-1" value="Fixed number of clusters" style="swimlane;whiteSpace=wrap;html=1;strokeWidth=2;glass=0;comic=0;fillColor=#e1d5e7;strokeColor=#9673a6;swimlaneFillColor=#f3e8f8;labelBackgroundColor=none;backgroundOutline=0;swimlaneBody=0;fillOpacity=100;shadow=0;absoluteArcSize=0;rounded=1;container=0;swimlaneHead=0;" parent="1" vertex="1">
          <mxGeometry x="230" y="105" width="330" height="320" as="geometry" />
        </mxCell>
        <mxCell id="pisMNLT7LliLQh7mAFiL-2" value="" style="edgeStyle=orthogonalEdgeStyle;rounded=0;orthogonalLoop=1;jettySize=auto;html=1;strokeColor=#9673a6;" parent="pisMNLT7LliLQh7mAFiL-1" source="pisMNLT7LliLQh7mAFiL-3" target="pisMNLT7LliLQh7mAFiL-4" edge="1">
          <mxGeometry relative="1" as="geometry" />
        </mxCell>
        <mxCell id="pisMNLT7LliLQh7mAFiL-3" value="Multilevel model fitting and extraction of estimates&amp;nbsp;" style="rounded=1;whiteSpace=wrap;html=1;absoluteArcSize=1;arcSize=14;strokeWidth=1;enumerate=0;enumerateValue=2;strokeColor=#9673a6;" parent="pisMNLT7LliLQh7mAFiL-1" vertex="1">
          <mxGeometry x="100" y="142" width="130" height="70" as="geometry" />
        </mxCell>
        <mxCell id="pisMNLT7LliLQh7mAFiL-4" value="Calculation of AAFBF and extraction of Bayes factor and PMP" style="rounded=1;whiteSpace=wrap;html=1;absoluteArcSize=1;arcSize=14;strokeWidth=1;enumerate=0;enumerateValue=3;strokeColor=#9673a6;" parent="pisMNLT7LliLQh7mAFiL-1" vertex="1">
          <mxGeometry x="100" y="240" width="130" height="70" as="geometry" />
        </mxCell>
        <mxCell id="pisMNLT7LliLQh7mAFiL-5" value="2" style="shape=ellipse;html=1;dashed=0;whiteSpace=wrap;perimeter=ellipsePerimeter;fillColor=#b0e3e6;strokeColor=#0e8088;" parent="pisMNLT7LliLQh7mAFiL-1" vertex="1">
          <mxGeometry x="108" y="191" width="20" height="20" as="geometry" />
        </mxCell>
        <mxCell id="pisMNLT7LliLQh7mAFiL-6" value="3" style="shape=ellipse;html=1;dashed=0;whiteSpace=wrap;perimeter=ellipsePerimeter;fillColor=#b0e3e6;strokeColor=#0e8088;" parent="pisMNLT7LliLQh7mAFiL-1" vertex="1">
          <mxGeometry x="104" y="289" width="20" height="20" as="geometry" />
        </mxCell>
        <mxCell id="pisMNLT7LliLQh7mAFiL-7" value="Fixed cluster size" style="swimlane;whiteSpace=wrap;html=1;strokeWidth=2;fillColor=#dae8fc;strokeColor=#6c8ebf;rounded=1;container=0;swimlaneBody=0;swimlaneHead=0;swimlaneFillColor=#e5f1ff;" parent="1" vertex="1">
          <mxGeometry x="600" y="105" width="330" height="320" as="geometry" />
        </mxCell>
        <mxCell id="pisMNLT7LliLQh7mAFiL-8" value="" style="edgeStyle=orthogonalEdgeStyle;rounded=0;orthogonalLoop=1;jettySize=auto;html=1;strokeColor=#6c8ebf;" parent="pisMNLT7LliLQh7mAFiL-7" source="pisMNLT7LliLQh7mAFiL-9" target="pisMNLT7LliLQh7mAFiL-10" edge="1">
          <mxGeometry relative="1" as="geometry" />
        </mxCell>
        <mxCell id="pisMNLT7LliLQh7mAFiL-9" value="Multilevel model fitting and extraction of estimates&amp;nbsp;" style="rounded=1;whiteSpace=wrap;html=1;absoluteArcSize=1;arcSize=14;strokeWidth=1;enumerate=0;enumerateValue=2;strokeColor=#6c8ebf;" parent="pisMNLT7LliLQh7mAFiL-7" vertex="1">
          <mxGeometry x="100" y="142" width="130" height="70" as="geometry" />
        </mxCell>
        <mxCell id="pisMNLT7LliLQh7mAFiL-10" value="Calculation of AAFBF and extraction of Bayes factor and PMP" style="rounded=1;whiteSpace=wrap;html=1;absoluteArcSize=1;arcSize=14;strokeWidth=1;enumerate=0;enumerateValue=3;strokeColor=#6c8ebf;" parent="pisMNLT7LliLQh7mAFiL-7" vertex="1">
          <mxGeometry x="100" y="239" width="130" height="70" as="geometry" />
        </mxCell>
        <mxCell id="pisMNLT7LliLQh7mAFiL-11" value="Generation of n datasets when H&lt;sub&gt;0 &lt;/sub&gt;is true" style="rounded=1;whiteSpace=wrap;html=1;absoluteArcSize=1;arcSize=14;strokeWidth=1;enumerate=0;enumerateValue=1;strokeColor=#9673a6;" parent="pisMNLT7LliLQh7mAFiL-7" vertex="1">
          <mxGeometry x="-347" y="45" width="120" height="60" as="geometry" />
        </mxCell>
        <mxCell id="pisMNLT7LliLQh7mAFiL-12" value="Generation of n datasets when H&lt;sub&gt;1&amp;nbsp;&lt;/sub&gt;is true" style="rounded=1;whiteSpace=wrap;html=1;absoluteArcSize=1;arcSize=14;strokeWidth=1;enumerate=0;enumerateValue=1;strokeColor=#9673a6;" parent="pisMNLT7LliLQh7mAFiL-7" vertex="1">
          <mxGeometry x="-184" y="45" width="120" height="60" as="geometry" />
        </mxCell>
        <mxCell id="pisMNLT7LliLQh7mAFiL-13" value="Generation of n datasets when H&lt;sub&gt;0 &lt;/sub&gt;is true" style="rounded=1;whiteSpace=wrap;html=1;absoluteArcSize=1;arcSize=14;strokeWidth=1;enumerate=0;enumerateValue=1;strokeColor=#6c8ebf;" parent="pisMNLT7LliLQh7mAFiL-7" vertex="1">
          <mxGeometry x="19" y="45" width="120" height="60" as="geometry" />
        </mxCell>
        <mxCell id="pisMNLT7LliLQh7mAFiL-14" value="Generation of n datasets when H&lt;sub&gt;1&amp;nbsp;&lt;/sub&gt;is true" style="rounded=1;whiteSpace=wrap;html=1;absoluteArcSize=1;arcSize=14;strokeWidth=1;enumerate=0;enumerateValue=1;strokeColor=#6c8ebf;" parent="pisMNLT7LliLQh7mAFiL-7" vertex="1">
          <mxGeometry x="189" y="45" width="120" height="60" as="geometry" />
        </mxCell>
        <mxCell id="pisMNLT7LliLQh7mAFiL-15" value="" style="edgeStyle=orthogonalEdgeStyle;rounded=0;orthogonalLoop=1;jettySize=auto;html=1;exitX=0.558;exitY=1.017;exitDx=0;exitDy=0;exitPerimeter=0;strokeColor=#6c8ebf;" parent="pisMNLT7LliLQh7mAFiL-7" source="pisMNLT7LliLQh7mAFiL-14" edge="1">
          <mxGeometry relative="1" as="geometry">
            <mxPoint x="259" y="102" as="sourcePoint" />
            <mxPoint x="163" y="142" as="targetPoint" />
            <Array as="points">
              <mxPoint x="256" y="125" />
              <mxPoint x="163" y="125" />
            </Array>
          </mxGeometry>
        </mxCell>
        <mxCell id="pisMNLT7LliLQh7mAFiL-16" value="" style="edgeStyle=orthogonalEdgeStyle;rounded=0;orthogonalLoop=1;jettySize=auto;html=1;strokeColor=#6c8ebf;" parent="pisMNLT7LliLQh7mAFiL-7" edge="1">
          <mxGeometry relative="1" as="geometry">
            <mxPoint x="72" y="105" as="sourcePoint" />
            <mxPoint x="163" y="142" as="targetPoint" />
            <Array as="points">
              <mxPoint x="72" y="125" />
              <mxPoint x="163" y="125" />
            </Array>
          </mxGeometry>
        </mxCell>
        <mxCell id="pisMNLT7LliLQh7mAFiL-18" value="1" style="shape=ellipse;html=1;dashed=0;whiteSpace=wrap;perimeter=ellipsePerimeter;fillColor=#b0e3e6;strokeColor=#0e8088;" parent="pisMNLT7LliLQh7mAFiL-7" vertex="1">
          <mxGeometry x="27" y="84" width="20" height="20" as="geometry" />
        </mxCell>
        <mxCell id="pisMNLT7LliLQh7mAFiL-19" value="1" style="shape=ellipse;html=1;dashed=0;whiteSpace=wrap;perimeter=ellipsePerimeter;fillColor=#b0e3e6;strokeColor=#0e8088;" parent="pisMNLT7LliLQh7mAFiL-7" vertex="1">
          <mxGeometry x="199" y="84" width="20" height="20" as="geometry" />
        </mxCell>
        <mxCell id="pisMNLT7LliLQh7mAFiL-20" value="2" style="shape=ellipse;html=1;dashed=0;whiteSpace=wrap;perimeter=ellipsePerimeter;fillColor=#b0e3e6;strokeColor=#0e8088;" parent="pisMNLT7LliLQh7mAFiL-7" vertex="1">
          <mxGeometry x="108" y="191" width="20" height="20" as="geometry" />
        </mxCell>
        <mxCell id="pisMNLT7LliLQh7mAFiL-21" value="3" style="shape=ellipse;html=1;dashed=0;whiteSpace=wrap;perimeter=ellipsePerimeter;fillColor=#b0e3e6;strokeColor=#0e8088;" parent="pisMNLT7LliLQh7mAFiL-7" vertex="1">
          <mxGeometry x="104" y="288" width="20" height="20" as="geometry" />
        </mxCell>
        <mxCell id="pisMNLT7LliLQh7mAFiL-22" value="No" style="edgeStyle=orthogonalEdgeStyle;rounded=0;orthogonalLoop=1;jettySize=auto;html=1;exitX=0;exitY=0.5;exitDx=0;exitDy=0;exitPerimeter=0;fontSize=12;strokeColor=#9673a6;entryX=1;entryY=0.5;entryDx=0;entryDy=0;" parent="1" source="pisMNLT7LliLQh7mAFiL-24" target="jt1Dwap1SnAnMrh6DfWO-1" edge="1">
          <mxGeometry relative="1" as="geometry">
            <mxPoint x="110" y="525" as="targetPoint" />
          </mxGeometry>
        </mxCell>
        <mxCell id="pisMNLT7LliLQh7mAFiL-23" value="No" style="edgeStyle=orthogonalEdgeStyle;rounded=0;orthogonalLoop=1;jettySize=auto;html=1;fontSize=12;entryX=0;entryY=0.5;entryDx=0;entryDy=0;strokeColor=#6c8ebf;" parent="1" source="pisMNLT7LliLQh7mAFiL-24" target="pisMNLT7LliLQh7mAFiL-48" edge="1">
          <mxGeometry relative="1" as="geometry">
            <mxPoint x="1040" y="540" as="targetPoint" />
          </mxGeometry>
        </mxCell>
        <mxCell id="pisMNLT7LliLQh7mAFiL-24" value="Is the power criterion met?&lt;br&gt;P(BF&amp;gt;BF&lt;sub&gt;thresh&lt;/sub&gt;|H&lt;sub&gt;0&lt;/sub&gt;) ≥ η&lt;br&gt;P(BF&amp;gt;BF&lt;sub style=&quot;border-color: var(--border-color);&quot;&gt;thresh&lt;/sub&gt;|H&lt;span style=&quot;font-size: 10px;&quot;&gt;&lt;sub&gt;1&lt;/sub&gt;&lt;/span&gt;) ≥ η" style="strokeWidth=1;html=1;shape=mxgraph.flowchart.decision;whiteSpace=wrap;enumerate=0;enumerateValue=4;strokeColor=#d6b656;" parent="1" vertex="1">
          <mxGeometry x="452" y="465" width="260" height="120" as="geometry" />
        </mxCell>
        <mxCell id="pisMNLT7LliLQh7mAFiL-25" style="edgeStyle=orthogonalEdgeStyle;rounded=0;orthogonalLoop=1;jettySize=auto;html=1;entryX=0;entryY=0.5;entryDx=0;entryDy=0;strokeColor=#9673a6;exitX=0.5;exitY=0;exitDx=0;exitDy=0;" parent="1" source="jt1Dwap1SnAnMrh6DfWO-1" target="pisMNLT7LliLQh7mAFiL-11" edge="1">
          <mxGeometry relative="1" as="geometry">
            <Array as="points">
              <mxPoint x="90" y="180" />
            </Array>
            <mxPoint x="60" y="485" as="sourcePoint" />
          </mxGeometry>
        </mxCell>
        <mxCell id="pisMNLT7LliLQh7mAFiL-26" style="edgeStyle=orthogonalEdgeStyle;rounded=0;orthogonalLoop=1;jettySize=auto;html=1;entryX=1;entryY=0.5;entryDx=0;entryDy=0;exitX=0.5;exitY=0;exitDx=0;exitDy=0;strokeColor=#6c8ebf;" parent="1" source="pisMNLT7LliLQh7mAFiL-48" target="pisMNLT7LliLQh7mAFiL-14" edge="1">
          <mxGeometry relative="1" as="geometry">
            <Array as="points">
              <mxPoint x="1070" y="180" />
            </Array>
            <mxPoint x="1100" y="450" as="sourcePoint" />
          </mxGeometry>
        </mxCell>
        <mxCell id="pisMNLT7LliLQh7mAFiL-27" value="No" style="edgeStyle=orthogonalEdgeStyle;rounded=0;orthogonalLoop=1;jettySize=auto;html=1;entryX=1;entryY=0.5;entryDx=0;entryDy=0;fontSize=12;strokeColor=#9673a6;" parent="1" source="pisMNLT7LliLQh7mAFiL-30" target="pisMNLT7LliLQh7mAFiL-32" edge="1">
          <mxGeometry relative="1" as="geometry">
            <mxPoint x="232" y="682" as="targetPoint" />
          </mxGeometry>
        </mxCell>
        <mxCell id="pisMNLT7LliLQh7mAFiL-28" value="No" style="edgeStyle=orthogonalEdgeStyle;rounded=0;orthogonalLoop=1;jettySize=auto;html=1;entryX=0;entryY=0.5;entryDx=0;entryDy=0;fontSize=12;strokeColor=#6c8ebf;" parent="1" source="pisMNLT7LliLQh7mAFiL-30" target="pisMNLT7LliLQh7mAFiL-34" edge="1">
          <mxGeometry relative="1" as="geometry" />
        </mxCell>
        <mxCell id="pisMNLT7LliLQh7mAFiL-29" value="Yes" style="edgeStyle=orthogonalEdgeStyle;rounded=0;orthogonalLoop=1;jettySize=auto;html=1;strokeColor=#707982;" parent="1" source="pisMNLT7LliLQh7mAFiL-30" target="pisMNLT7LliLQh7mAFiL-41" edge="1">
          <mxGeometry relative="1" as="geometry" />
        </mxCell>
        <mxCell id="pisMNLT7LliLQh7mAFiL-30" value="Is the sensitivity analysis finished?" style="strokeWidth=1;html=1;shape=mxgraph.flowchart.decision;whiteSpace=wrap;enumerate=0;strokeColor=#d6b656;" parent="1" vertex="1">
          <mxGeometry x="467" y="622" width="230" height="120" as="geometry" />
        </mxCell>
        <mxCell id="pisMNLT7LliLQh7mAFiL-31" style="edgeStyle=orthogonalEdgeStyle;rounded=0;orthogonalLoop=1;jettySize=auto;html=1;jumpStyle=gap;exitX=0.5;exitY=0;exitDx=0;exitDy=0;strokeColor=#9673a6;entryX=0;entryY=0.5;entryDx=0;entryDy=0;" parent="1" source="pisMNLT7LliLQh7mAFiL-32" target="pisMNLT7LliLQh7mAFiL-4" edge="1">
          <mxGeometry relative="1" as="geometry">
            <mxPoint x="192" y="653.5" as="sourcePoint" />
            <mxPoint x="320" y="380" as="targetPoint" />
            <Array as="points">
              <mxPoint x="194" y="380" />
            </Array>
          </mxGeometry>
        </mxCell>
        <mxCell id="pisMNLT7LliLQh7mAFiL-32" value="Increase fraction of information (b)&lt;br&gt;" style="rounded=1;whiteSpace=wrap;html=1;absoluteArcSize=1;arcSize=14;strokeWidth=1;enumerate=0;enumerateValue=6;strokeColor=#9673a6;" parent="1" vertex="1">
          <mxGeometry x="144" y="649.5" width="100" height="65" as="geometry" />
        </mxCell>
        <mxCell id="QX7CyK3r6FRn80XH1Ywv-3" style="edgeStyle=orthogonalEdgeStyle;orthogonalLoop=1;jettySize=auto;html=1;entryX=1;entryY=0.5;entryDx=0;entryDy=0;rounded=0;curved=0;strokeColor=#6c8ebf;exitX=0.5;exitY=0;exitDx=0;exitDy=0;" parent="1" source="pisMNLT7LliLQh7mAFiL-34" target="pisMNLT7LliLQh7mAFiL-10" edge="1">
          <mxGeometry relative="1" as="geometry">
            <Array as="points">
              <mxPoint x="967" y="379" />
            </Array>
          </mxGeometry>
        </mxCell>
        <mxCell id="pisMNLT7LliLQh7mAFiL-34" value="Increase fraction of information (b)&lt;br&gt;" style="rounded=1;whiteSpace=wrap;html=1;absoluteArcSize=1;arcSize=14;strokeWidth=1;enumerate=0;enumerateValue=6;strokeColor=#7d9bc7;" parent="1" vertex="1">
          <mxGeometry x="917" y="649.5" width="100" height="65" as="geometry" />
        </mxCell>
        <mxCell id="pisMNLT7LliLQh7mAFiL-35" value="Yes" style="edgeStyle=orthogonalEdgeStyle;rounded=0;orthogonalLoop=1;jettySize=auto;html=1;entryX=0.5;entryY=0;entryDx=0;entryDy=0;entryPerimeter=0;strokeColor=#707982;" parent="1" source="pisMNLT7LliLQh7mAFiL-24" target="pisMNLT7LliLQh7mAFiL-30" edge="1">
          <mxGeometry relative="1" as="geometry" />
        </mxCell>
        <mxCell id="pisMNLT7LliLQh7mAFiL-36" value="" style="edgeStyle=orthogonalEdgeStyle;rounded=0;orthogonalLoop=1;jettySize=auto;html=1;strokeColor=#9673a6;" parent="1" source="pisMNLT7LliLQh7mAFiL-11" target="pisMNLT7LliLQh7mAFiL-3" edge="1">
          <mxGeometry relative="1" as="geometry">
            <Array as="points">
              <mxPoint x="313" y="230" />
              <mxPoint x="397" y="230" />
            </Array>
          </mxGeometry>
        </mxCell>
        <mxCell id="pisMNLT7LliLQh7mAFiL-37" value="" style="edgeStyle=orthogonalEdgeStyle;rounded=0;orthogonalLoop=1;jettySize=auto;html=1;exitX=0.5;exitY=1;exitDx=0;exitDy=0;entryX=0.5;entryY=0;entryDx=0;entryDy=0;strokeColor=#9673a6;" parent="1" edge="1">
          <mxGeometry relative="1" as="geometry">
            <mxPoint x="483" y="210" as="sourcePoint" />
            <mxPoint x="397" y="247" as="targetPoint" />
            <Array as="points">
              <mxPoint x="483" y="230" />
              <mxPoint x="397" y="230" />
            </Array>
          </mxGeometry>
        </mxCell>
        <mxCell id="pisMNLT7LliLQh7mAFiL-38" style="edgeStyle=orthogonalEdgeStyle;rounded=0;orthogonalLoop=1;jettySize=auto;html=1;fillColor=#647687;strokeColor=#707982;curved=0;" parent="1" source="pisMNLT7LliLQh7mAFiL-40" target="pisMNLT7LliLQh7mAFiL-1" edge="1">
          <mxGeometry relative="1" as="geometry" />
        </mxCell>
        <mxCell id="pisMNLT7LliLQh7mAFiL-39" style="edgeStyle=orthogonalEdgeStyle;rounded=0;orthogonalLoop=1;jettySize=auto;html=1;fillColor=#647687;strokeColor=#707982;curved=0;" parent="1" source="pisMNLT7LliLQh7mAFiL-40" target="pisMNLT7LliLQh7mAFiL-7" edge="1">
          <mxGeometry relative="1" as="geometry" />
        </mxCell>
        <mxCell id="pisMNLT7LliLQh7mAFiL-40" value="&lt;h4&gt;User input&lt;/h4&gt;" style="html=1;dashed=0;whiteSpace=wrap;shape=mxgraph.dfd.start;fillColor=#fff2cc;strokeColor=#d6b656;" parent="1" vertex="1">
          <mxGeometry x="542" y="10" width="80" height="30" as="geometry" />
        </mxCell>
        <mxCell id="pisMNLT7LliLQh7mAFiL-41" value="&lt;h4&gt;Print final sample size&lt;/h4&gt;" style="html=1;dashed=0;whiteSpace=wrap;shape=mxgraph.dfd.start;fillColor=#fff2cc;strokeColor=#d6b656;" parent="1" vertex="1">
          <mxGeometry x="542" y="780" width="80" height="30" as="geometry" />
        </mxCell>
        <mxCell id="pisMNLT7LliLQh7mAFiL-42" style="edgeStyle=orthogonalEdgeStyle;rounded=0;orthogonalLoop=1;jettySize=auto;html=1;strokeColor=#6c8ebf;" parent="1" edge="1">
          <mxGeometry relative="1" as="geometry">
            <Array as="points">
              <mxPoint x="772" y="440" />
              <mxPoint x="582" y="440" />
            </Array>
            <mxPoint x="772" y="414" as="sourcePoint" />
            <mxPoint x="582" y="465" as="targetPoint" />
          </mxGeometry>
        </mxCell>
        <mxCell id="pisMNLT7LliLQh7mAFiL-43" style="edgeStyle=orthogonalEdgeStyle;rounded=0;orthogonalLoop=1;jettySize=auto;html=1;entryX=0.5;entryY=0;entryDx=0;entryDy=0;entryPerimeter=0;strokeWidth=1;strokeColor=#9673a6;" parent="1" source="pisMNLT7LliLQh7mAFiL-4" target="pisMNLT7LliLQh7mAFiL-24" edge="1">
          <mxGeometry relative="1" as="geometry" />
        </mxCell>
        <mxCell id="pisMNLT7LliLQh7mAFiL-44" value="1" style="shape=ellipse;html=1;dashed=0;whiteSpace=wrap;perimeter=ellipsePerimeter;fillColor=#b0e3e6;strokeColor=#0e8088;" parent="1" vertex="1">
          <mxGeometry x="430" y="189" width="20" height="20" as="geometry" />
        </mxCell>
        <mxCell id="pisMNLT7LliLQh7mAFiL-45" value="4" style="shape=ellipse;html=1;dashed=0;whiteSpace=wrap;perimeter=ellipsePerimeter;fillColor=#b0e3e6;strokeColor=#0e8088;" parent="1" vertex="1">
          <mxGeometry x="572" y="480" width="20" height="20" as="geometry" />
        </mxCell>
        <mxCell id="pisMNLT7LliLQh7mAFiL-46" value="6" style="shape=ellipse;html=1;dashed=0;whiteSpace=wrap;perimeter=ellipsePerimeter;fillColor=#b0e3e6;strokeColor=#0e8088;" parent="1" vertex="1">
          <mxGeometry x="149" y="694.5" width="20" height="20" as="geometry" />
        </mxCell>
        <mxCell id="pisMNLT7LliLQh7mAFiL-47" value="6" style="shape=ellipse;html=1;dashed=0;whiteSpace=wrap;perimeter=ellipsePerimeter;fillColor=#b0e3e6;strokeColor=#0e8088;" parent="1" vertex="1">
          <mxGeometry x="924" y="694.5" width="20" height="20" as="geometry" />
        </mxCell>
        <mxCell id="QX7CyK3r6FRn80XH1Ywv-2" value="" style="group" parent="1" vertex="1" connectable="0">
          <mxGeometry x="40" y="485" width="100" height="80" as="geometry" />
        </mxCell>
        <mxCell id="jt1Dwap1SnAnMrh6DfWO-1" value="Update the cluster size with binary search algorithm" style="rounded=1;whiteSpace=wrap;html=1;absoluteArcSize=1;arcSize=14;strokeWidth=1;enumerate=0;enumerateValue=5;strokeColor=#9673a6;" parent="QX7CyK3r6FRn80XH1Ywv-2" vertex="1">
          <mxGeometry width="100" height="80" as="geometry" />
        </mxCell>
        <mxCell id="jt1Dwap1SnAnMrh6DfWO-2" value="5" style="shape=ellipse;html=1;dashed=0;whiteSpace=wrap;perimeter=ellipsePerimeter;fillColor=#b0e3e6;strokeColor=#0e8088;" parent="QX7CyK3r6FRn80XH1Ywv-2" vertex="1">
          <mxGeometry x="7" y="60" width="20" height="20" as="geometry" />
        </mxCell>
        <mxCell id="QX7CyK3r6FRn80XH1Ywv-4" value="" style="group" parent="1" vertex="1" connectable="0">
          <mxGeometry x="1020" y="485" width="100" height="80" as="geometry" />
        </mxCell>
        <mxCell id="pisMNLT7LliLQh7mAFiL-48" value="Update the number of cluster with binary search algorithm" style="rounded=1;whiteSpace=wrap;html=1;absoluteArcSize=1;arcSize=14;strokeWidth=1;enumerate=0;enumerateValue=5;strokeColor=#7d9bc7;" parent="QX7CyK3r6FRn80XH1Ywv-4" vertex="1">
          <mxGeometry width="100" height="80" as="geometry" />
        </mxCell>
        <mxCell id="pisMNLT7LliLQh7mAFiL-49" value="5" style="shape=ellipse;html=1;dashed=0;whiteSpace=wrap;perimeter=ellipsePerimeter;fillColor=#b0e3e6;strokeColor=#0e8088;" parent="QX7CyK3r6FRn80XH1Ywv-4" vertex="1">
          <mxGeometry x="4" y="59" width="20" height="20" as="geometry" />
        </mxCell>
        <mxCell id="pisMNLT7LliLQh7mAFiL-17" value="1" style="shape=ellipse;html=1;dashed=0;whiteSpace=wrap;perimeter=ellipsePerimeter;fillColor=#b0e3e6;strokeColor=#0e8088;fontStyle=0" parent="1" vertex="1">
          <mxGeometry x="265" y="189" width="20" height="20" as="geometry" />
        </mxCell>
      </root>
    </mxGraphModel>
  </diagram>
  <diagram id="uQdmxAlQui6RhkzZlVYe" name="Page-3">
    <mxGraphModel dx="1050" dy="629" grid="1" gridSize="10" guides="1" tooltips="1" connect="1" arrows="1" fold="1" page="1" pageScale="1" pageWidth="1169" pageHeight="827" math="0" shadow="0">
      <root>
        <mxCell id="0" />
        <mxCell id="1" parent="0" />
        <mxCell id="rDekxZMWeXEtkbzPecd3-1" value="Fixed number of clusters" style="swimlane;whiteSpace=wrap;html=1;strokeWidth=2;glass=0;comic=0;fillColor=#f5f5f5;strokeColor=#666666;swimlaneFillColor=#f5f5f5;labelBackgroundColor=none;backgroundOutline=0;rounded=1;fontColor=#333333;swimlaneHead=0;swimlaneBody=0;container=0;" parent="1" vertex="1">
          <mxGeometry x="232" y="105" width="330" height="320" as="geometry" />
        </mxCell>
        <mxCell id="rDekxZMWeXEtkbzPecd3-2" value="" style="edgeStyle=orthogonalEdgeStyle;rounded=0;orthogonalLoop=1;jettySize=auto;html=1;strokeColor=#666666;strokeWidth=2;" parent="rDekxZMWeXEtkbzPecd3-1" source="rDekxZMWeXEtkbzPecd3-3" target="rDekxZMWeXEtkbzPecd3-4" edge="1">
          <mxGeometry relative="1" as="geometry" />
        </mxCell>
        <mxCell id="rDekxZMWeXEtkbzPecd3-3" value="Multilevel model fitting and extraction of estimates&amp;nbsp;" style="rounded=1;whiteSpace=wrap;html=1;absoluteArcSize=1;arcSize=14;strokeWidth=1;enumerate=0;enumerateValue=2;strokeColor=#666666;" parent="rDekxZMWeXEtkbzPecd3-1" vertex="1">
          <mxGeometry x="100" y="142" width="130" height="70" as="geometry" />
        </mxCell>
        <mxCell id="rDekxZMWeXEtkbzPecd3-4" value="Calculation of AAFBF and extraction of Bayes factor and PMP" style="rounded=1;whiteSpace=wrap;html=1;absoluteArcSize=1;arcSize=14;strokeWidth=1;enumerate=0;enumerateValue=3;strokeColor=#666666;" parent="rDekxZMWeXEtkbzPecd3-1" vertex="1">
          <mxGeometry x="100" y="240" width="130" height="70" as="geometry" />
        </mxCell>
        <mxCell id="rDekxZMWeXEtkbzPecd3-5" value="2" style="shape=ellipse;html=1;dashed=0;whiteSpace=wrap;perimeter=ellipsePerimeter;fillColor=#b0e3e6;strokeColor=#0e8088;rounded=0;" parent="rDekxZMWeXEtkbzPecd3-1" vertex="1">
          <mxGeometry x="108" y="191" width="20" height="20" as="geometry" />
        </mxCell>
        <mxCell id="rDekxZMWeXEtkbzPecd3-6" value="3" style="shape=ellipse;html=1;dashed=0;whiteSpace=wrap;perimeter=ellipsePerimeter;fillColor=#b0e3e6;strokeColor=#0e8088;rounded=0;" parent="rDekxZMWeXEtkbzPecd3-1" vertex="1">
          <mxGeometry x="104" y="289" width="20" height="20" as="geometry" />
        </mxCell>
        <mxCell id="rDekxZMWeXEtkbzPecd3-12" value="Generation of n datasets when H&lt;sub&gt;1&amp;nbsp;&lt;/sub&gt;is true" style="rounded=1;whiteSpace=wrap;html=1;absoluteArcSize=1;arcSize=14;strokeWidth=1;enumerate=0;enumerateValue=1;strokeColor=#666666;" parent="rDekxZMWeXEtkbzPecd3-1" vertex="1">
          <mxGeometry x="105" y="45" width="120" height="60" as="geometry" />
        </mxCell>
        <mxCell id="rDekxZMWeXEtkbzPecd3-7" value="Fixed cluster size" style="swimlane;whiteSpace=wrap;html=1;strokeWidth=2;fillColor=#BAC8D3;strokeColor=#23445d;rounded=1;swimlaneFillColor=#bac8d3;swimlaneBody=0;swimlaneHead=0;container=0;" parent="1" vertex="1">
          <mxGeometry x="607" y="105" width="330" height="320" as="geometry" />
        </mxCell>
        <mxCell id="rDekxZMWeXEtkbzPecd3-8" value="" style="edgeStyle=orthogonalEdgeStyle;rounded=0;orthogonalLoop=1;jettySize=auto;html=1;strokeColor=#23445d;strokeWidth=2;" parent="rDekxZMWeXEtkbzPecd3-7" source="rDekxZMWeXEtkbzPecd3-9" target="rDekxZMWeXEtkbzPecd3-10" edge="1">
          <mxGeometry relative="1" as="geometry" />
        </mxCell>
        <mxCell id="rDekxZMWeXEtkbzPecd3-9" value="Multilevel model fitting and extraction of estimates&amp;nbsp;" style="rounded=1;whiteSpace=wrap;html=1;absoluteArcSize=1;arcSize=14;strokeWidth=1;enumerate=0;enumerateValue=2;strokeColor=#23445d;" parent="rDekxZMWeXEtkbzPecd3-7" vertex="1">
          <mxGeometry x="100" y="142" width="130" height="70" as="geometry" />
        </mxCell>
        <mxCell id="rDekxZMWeXEtkbzPecd3-10" value="Calculation of AAFBF and extraction of Bayes factor and PMP" style="rounded=1;whiteSpace=wrap;html=1;absoluteArcSize=1;arcSize=14;strokeWidth=1;enumerate=0;enumerateValue=3;strokeColor=#23445d;" parent="rDekxZMWeXEtkbzPecd3-7" vertex="1">
          <mxGeometry x="100" y="240" width="130" height="70" as="geometry" />
        </mxCell>
        <mxCell id="Ye7wmTFGvm6agMkZ7rca-1" style="edgeStyle=orthogonalEdgeStyle;rounded=0;orthogonalLoop=1;jettySize=auto;html=1;strokeWidth=2;strokeColor=#23445d;" edge="1" parent="rDekxZMWeXEtkbzPecd3-7" source="rDekxZMWeXEtkbzPecd3-14">
          <mxGeometry relative="1" as="geometry">
            <mxPoint x="165" y="145" as="targetPoint" />
          </mxGeometry>
        </mxCell>
        <mxCell id="rDekxZMWeXEtkbzPecd3-14" value="Generation of n datasets when H&lt;sub&gt;1&amp;nbsp;&lt;/sub&gt;is true" style="rounded=1;whiteSpace=wrap;html=1;absoluteArcSize=1;arcSize=14;strokeWidth=1;enumerate=0;enumerateValue=1;strokeColor=#23445d;" parent="rDekxZMWeXEtkbzPecd3-7" vertex="1">
          <mxGeometry x="105" y="44" width="120" height="60" as="geometry" />
        </mxCell>
        <mxCell id="rDekxZMWeXEtkbzPecd3-19" value="1" style="shape=ellipse;html=1;dashed=0;whiteSpace=wrap;perimeter=ellipsePerimeter;fillColor=#b0e3e6;strokeColor=#0e8088;rounded=0;" parent="rDekxZMWeXEtkbzPecd3-7" vertex="1">
          <mxGeometry x="199" y="84" width="20" height="20" as="geometry" />
        </mxCell>
        <mxCell id="rDekxZMWeXEtkbzPecd3-20" value="2" style="shape=ellipse;html=1;dashed=0;whiteSpace=wrap;perimeter=ellipsePerimeter;fillColor=#b0e3e6;strokeColor=#0e8088;rounded=0;" parent="rDekxZMWeXEtkbzPecd3-7" vertex="1">
          <mxGeometry x="108" y="191" width="20" height="20" as="geometry" />
        </mxCell>
        <mxCell id="rDekxZMWeXEtkbzPecd3-21" value="3" style="shape=ellipse;html=1;dashed=0;whiteSpace=wrap;perimeter=ellipsePerimeter;fillColor=#b0e3e6;strokeColor=#0e8088;rounded=0;" parent="rDekxZMWeXEtkbzPecd3-7" vertex="1">
          <mxGeometry x="104" y="289" width="20" height="20" as="geometry" />
        </mxCell>
        <mxCell id="rDekxZMWeXEtkbzPecd3-22" value="No" style="edgeStyle=orthogonalEdgeStyle;rounded=0;orthogonalLoop=1;jettySize=auto;html=1;exitX=0;exitY=0.5;exitDx=0;exitDy=0;exitPerimeter=0;fontSize=15;strokeColor=#666666;strokeWidth=2;" parent="1" source="rDekxZMWeXEtkbzPecd3-24" target="rDekxZMWeXEtkbzPecd3-25" edge="1">
          <mxGeometry relative="1" as="geometry" />
        </mxCell>
        <mxCell id="rDekxZMWeXEtkbzPecd3-23" value="No" style="edgeStyle=orthogonalEdgeStyle;rounded=0;orthogonalLoop=1;jettySize=auto;html=1;fontSize=15;entryX=0;entryY=0.5;entryDx=0;entryDy=0;strokeColor=#23445d;strokeWidth=2;" parent="1" source="rDekxZMWeXEtkbzPecd3-24" target="rDekxZMWeXEtkbzPecd3-49" edge="1">
          <mxGeometry relative="1" as="geometry">
            <mxPoint x="1040" y="554" as="targetPoint" />
          </mxGeometry>
        </mxCell>
        <mxCell id="rDekxZMWeXEtkbzPecd3-24" value="Is the power criterion met?&lt;br&gt;P(BF&amp;gt;BF&lt;sub style=&quot;border-color: var(--border-color);&quot;&gt;thresh&lt;/sub&gt;|H&lt;span style=&quot;font-size: 10px;&quot;&gt;&lt;sub&gt;1&lt;/sub&gt;&lt;/span&gt;) ≥ η" style="strokeWidth=1;html=1;shape=mxgraph.flowchart.decision;whiteSpace=wrap;enumerate=0;enumerateValue=4;shadow=0;rounded=0;" parent="1" vertex="1">
          <mxGeometry x="452" y="479" width="260" height="120" as="geometry" />
        </mxCell>
        <mxCell id="rDekxZMWeXEtkbzPecd3-25" value="Update the cluster size with binary search algorithm" style="rounded=1;whiteSpace=wrap;html=1;absoluteArcSize=1;arcSize=14;strokeWidth=1;enumerate=0;enumerateValue=5;strokeColor=#666666;" parent="1" vertex="1">
          <mxGeometry x="10" y="499" width="100" height="80" as="geometry" />
        </mxCell>
        <mxCell id="rDekxZMWeXEtkbzPecd3-26" style="edgeStyle=orthogonalEdgeStyle;rounded=0;orthogonalLoop=1;jettySize=auto;html=1;entryX=1;entryY=0.5;entryDx=0;entryDy=0;exitX=0.5;exitY=0;exitDx=0;exitDy=0;strokeColor=#23445d;strokeWidth=2;" parent="1" source="rDekxZMWeXEtkbzPecd3-49" target="rDekxZMWeXEtkbzPecd3-14" edge="1">
          <mxGeometry relative="1" as="geometry">
            <Array as="points">
              <mxPoint x="1100" y="180" />
            </Array>
            <mxPoint x="1100" y="450" as="sourcePoint" />
          </mxGeometry>
        </mxCell>
        <mxCell id="rDekxZMWeXEtkbzPecd3-35" value="Yes" style="edgeStyle=orthogonalEdgeStyle;rounded=0;orthogonalLoop=1;jettySize=auto;html=1;entryX=0.5;entryY=0.5;entryDx=0;entryDy=-15;entryPerimeter=0;strokeWidth=2;fontSize=14;" parent="1" source="rDekxZMWeXEtkbzPecd3-24" target="rDekxZMWeXEtkbzPecd3-41" edge="1">
          <mxGeometry relative="1" as="geometry">
            <mxPoint x="582" y="634" as="targetPoint" />
          </mxGeometry>
        </mxCell>
        <mxCell id="rDekxZMWeXEtkbzPecd3-37" value="" style="edgeStyle=orthogonalEdgeStyle;rounded=0;orthogonalLoop=1;jettySize=auto;html=1;exitX=0.5;exitY=1;exitDx=0;exitDy=0;entryX=0.5;entryY=0;entryDx=0;entryDy=0;strokeColor=#666666;strokeWidth=2;" parent="1" edge="1" source="rDekxZMWeXEtkbzPecd3-12">
          <mxGeometry relative="1" as="geometry">
            <mxPoint x="483" y="210" as="sourcePoint" />
            <mxPoint x="397" y="247" as="targetPoint" />
            <Array as="points">
              <mxPoint x="397" y="230" />
              <mxPoint x="397" y="230" />
            </Array>
          </mxGeometry>
        </mxCell>
        <mxCell id="rDekxZMWeXEtkbzPecd3-38" style="edgeStyle=orthogonalEdgeStyle;rounded=0;orthogonalLoop=1;jettySize=auto;html=1;strokeWidth=2;" parent="1" source="rDekxZMWeXEtkbzPecd3-40" target="rDekxZMWeXEtkbzPecd3-1" edge="1">
          <mxGeometry relative="1" as="geometry" />
        </mxCell>
        <mxCell id="rDekxZMWeXEtkbzPecd3-39" style="edgeStyle=orthogonalEdgeStyle;rounded=0;orthogonalLoop=1;jettySize=auto;html=1;strokeWidth=2;" parent="1" source="rDekxZMWeXEtkbzPecd3-40" target="rDekxZMWeXEtkbzPecd3-7" edge="1">
          <mxGeometry relative="1" as="geometry" />
        </mxCell>
        <mxCell id="rDekxZMWeXEtkbzPecd3-40" value="&lt;h4&gt;User input&lt;/h4&gt;" style="html=1;dashed=0;whiteSpace=wrap;shape=mxgraph.dfd.start;rounded=0;fillColor=#647687;fontColor=#ffffff;strokeColor=#314354;" parent="1" vertex="1">
          <mxGeometry x="542" y="10" width="80" height="30" as="geometry" />
        </mxCell>
        <mxCell id="rDekxZMWeXEtkbzPecd3-41" value="&lt;h4&gt;Print final sample size&lt;/h4&gt;" style="html=1;dashed=0;whiteSpace=wrap;shape=mxgraph.dfd.start;rounded=0;fillColor=#647687;fontColor=#ffffff;strokeColor=#314354;" parent="1" vertex="1">
          <mxGeometry x="542" y="674" width="80" height="30" as="geometry" />
        </mxCell>
        <mxCell id="rDekxZMWeXEtkbzPecd3-43" style="edgeStyle=orthogonalEdgeStyle;rounded=0;orthogonalLoop=1;jettySize=auto;html=1;entryX=0.5;entryY=0;entryDx=0;entryDy=0;entryPerimeter=0;strokeWidth=2;strokeColor=#666666;" parent="1" source="rDekxZMWeXEtkbzPecd3-4" target="rDekxZMWeXEtkbzPecd3-24" edge="1">
          <mxGeometry relative="1" as="geometry" />
        </mxCell>
        <mxCell id="rDekxZMWeXEtkbzPecd3-44" value="1" style="shape=ellipse;html=1;dashed=0;whiteSpace=wrap;perimeter=ellipsePerimeter;fillColor=#b0e3e6;strokeColor=#0e8088;rounded=0;" parent="1" vertex="1">
          <mxGeometry x="430" y="189" width="20" height="20" as="geometry" />
        </mxCell>
        <mxCell id="rDekxZMWeXEtkbzPecd3-45" value="4" style="shape=ellipse;html=1;dashed=0;whiteSpace=wrap;perimeter=ellipsePerimeter;fillColor=#b0e3e6;strokeColor=#0e8088;rounded=0;" parent="1" vertex="1">
          <mxGeometry x="572" y="488" width="20" height="20" as="geometry" />
        </mxCell>
        <mxCell id="rDekxZMWeXEtkbzPecd3-46" value="5" style="shape=ellipse;html=1;dashed=0;whiteSpace=wrap;perimeter=ellipsePerimeter;fillColor=#b0e3e6;strokeColor=#0e8088;rounded=0;" parent="1" vertex="1">
          <mxGeometry x="15" y="558" width="20" height="20" as="geometry" />
        </mxCell>
        <mxCell id="rDekxZMWeXEtkbzPecd3-49" value="Update the number of cluster with binary search algorithm" style="rounded=1;whiteSpace=wrap;html=1;absoluteArcSize=1;arcSize=14;strokeWidth=1;enumerate=0;enumerateValue=5;strokeColor=#23445d;" parent="1" vertex="1">
          <mxGeometry x="1050" y="499" width="100" height="80" as="geometry" />
        </mxCell>
        <mxCell id="rDekxZMWeXEtkbzPecd3-50" value="5" style="shape=ellipse;html=1;dashed=0;whiteSpace=wrap;perimeter=ellipsePerimeter;fillColor=#b0e3e6;strokeColor=#0e8088;rounded=0;" parent="1" vertex="1">
          <mxGeometry x="1054" y="558" width="20" height="20" as="geometry" />
        </mxCell>
        <mxCell id="rDekxZMWeXEtkbzPecd3-51" value="" style="edgeStyle=orthogonalEdgeStyle;rounded=0;orthogonalLoop=1;jettySize=auto;html=1;entryX=0;entryY=0.5;entryDx=0;entryDy=0;strokeColor=#666666;strokeWidth=2;" parent="1" source="rDekxZMWeXEtkbzPecd3-25" target="rDekxZMWeXEtkbzPecd3-12" edge="1">
          <mxGeometry relative="1" as="geometry">
            <Array as="points">
              <mxPoint x="60" y="180" />
            </Array>
            <mxPoint x="60" y="485" as="sourcePoint" />
            <mxPoint x="253" y="180" as="targetPoint" />
          </mxGeometry>
        </mxCell>
        <mxCell id="rDekxZMWeXEtkbzPecd3-52" style="edgeStyle=orthogonalEdgeStyle;rounded=0;orthogonalLoop=1;jettySize=auto;html=1;entryX=0.5;entryY=0;entryDx=0;entryDy=0;entryPerimeter=0;strokeWidth=2;strokeColor=#23445d;" parent="1" source="rDekxZMWeXEtkbzPecd3-10" target="rDekxZMWeXEtkbzPecd3-24" edge="1">
          <mxGeometry relative="1" as="geometry" />
        </mxCell>
      </root>
    </mxGraphModel>
  </diagram>
  <diagram id="oTW-j1LxhgtgJbiwf0eW" name="Page-4">
    <mxGraphModel dx="1050" dy="629" grid="1" gridSize="10" guides="1" tooltips="1" connect="1" arrows="1" fold="1" page="1" pageScale="1" pageWidth="1169" pageHeight="827" math="0" shadow="0">
      <root>
        <mxCell id="0" />
        <mxCell id="1" parent="0" />
        <mxCell id="rD5OIO8iTpBC_e0c4k-J-1" value="Fixed number of clusters" style="swimlane;whiteSpace=wrap;html=1;strokeWidth=2;glass=0;comic=0;fillColor=#e1d5e7;strokeColor=#9673a6;swimlaneFillColor=#F3E8F8;labelBackgroundColor=none;backgroundOutline=0;rounded=1;swimlaneHead=0;swimlaneBody=0;container=0;" parent="1" vertex="1">
          <mxGeometry x="232" y="117" width="330" height="320" as="geometry" />
        </mxCell>
        <mxCell id="rD5OIO8iTpBC_e0c4k-J-2" value="" style="edgeStyle=orthogonalEdgeStyle;rounded=0;orthogonalLoop=1;jettySize=auto;html=1;strokeColor=#9673a6;strokeWidth=2;" parent="rD5OIO8iTpBC_e0c4k-J-1" source="rD5OIO8iTpBC_e0c4k-J-3" target="rD5OIO8iTpBC_e0c4k-J-4" edge="1">
          <mxGeometry relative="1" as="geometry" />
        </mxCell>
        <mxCell id="rD5OIO8iTpBC_e0c4k-J-3" value="Multilevel model fitting and extraction of estimates&amp;nbsp;" style="rounded=1;whiteSpace=wrap;html=1;absoluteArcSize=1;arcSize=14;strokeWidth=1;enumerate=0;enumerateValue=2;strokeColor=#9673a6;" parent="rD5OIO8iTpBC_e0c4k-J-1" vertex="1">
          <mxGeometry x="100" y="142" width="130" height="70" as="geometry" />
        </mxCell>
        <mxCell id="rD5OIO8iTpBC_e0c4k-J-4" value="Calculation of AAFBF and extraction of Bayes factor and PMP" style="rounded=1;whiteSpace=wrap;html=1;absoluteArcSize=1;arcSize=14;strokeWidth=1;enumerate=0;enumerateValue=3;strokeColor=#9673a6;" parent="rD5OIO8iTpBC_e0c4k-J-1" vertex="1">
          <mxGeometry x="100" y="240" width="130" height="70" as="geometry" />
        </mxCell>
        <mxCell id="rD5OIO8iTpBC_e0c4k-J-5" value="2" style="shape=ellipse;html=1;dashed=0;whiteSpace=wrap;perimeter=ellipsePerimeter;fillColor=#b0e3e6;strokeColor=#0e8088;rounded=0;" parent="rD5OIO8iTpBC_e0c4k-J-1" vertex="1">
          <mxGeometry x="108" y="191" width="20" height="20" as="geometry" />
        </mxCell>
        <mxCell id="rD5OIO8iTpBC_e0c4k-J-6" value="3" style="shape=ellipse;html=1;dashed=0;whiteSpace=wrap;perimeter=ellipsePerimeter;fillColor=#b0e3e6;strokeColor=#0e8088;rounded=0;" parent="rD5OIO8iTpBC_e0c4k-J-1" vertex="1">
          <mxGeometry x="104" y="289" width="20" height="20" as="geometry" />
        </mxCell>
        <mxCell id="rD5OIO8iTpBC_e0c4k-J-12" value="Generation of n datasets when H&lt;sub&gt;1&amp;nbsp;&lt;/sub&gt;is true" style="rounded=1;whiteSpace=wrap;html=1;absoluteArcSize=1;arcSize=14;strokeWidth=1;enumerate=0;enumerateValue=1;strokeColor=#9673a6;" parent="rD5OIO8iTpBC_e0c4k-J-1" vertex="1">
          <mxGeometry x="105" y="45" width="120" height="60" as="geometry" />
        </mxCell>
        <mxCell id="rD5OIO8iTpBC_e0c4k-J-35" value="1" style="shape=ellipse;html=1;dashed=0;whiteSpace=wrap;perimeter=ellipsePerimeter;fillColor=#b0e3e6;strokeColor=#0e8088;rounded=0;" parent="rD5OIO8iTpBC_e0c4k-J-1" vertex="1">
          <mxGeometry x="114" y="85" width="20" height="20" as="geometry" />
        </mxCell>
        <mxCell id="rD5OIO8iTpBC_e0c4k-J-7" value="Fixed cluster size" style="swimlane;whiteSpace=wrap;html=1;strokeWidth=2;fillColor=#dae8fc;strokeColor=#6c8ebf;rounded=1;swimlaneFillColor=#E5F1FF;swimlaneBody=0;swimlaneHead=0;container=0;" parent="1" vertex="1">
          <mxGeometry x="607" y="117" width="330" height="320" as="geometry" />
        </mxCell>
        <mxCell id="rD5OIO8iTpBC_e0c4k-J-8" value="" style="edgeStyle=orthogonalEdgeStyle;rounded=0;orthogonalLoop=1;jettySize=auto;html=1;strokeColor=#6c8ebf;strokeWidth=2;" parent="rD5OIO8iTpBC_e0c4k-J-7" source="rD5OIO8iTpBC_e0c4k-J-9" target="rD5OIO8iTpBC_e0c4k-J-10" edge="1">
          <mxGeometry relative="1" as="geometry" />
        </mxCell>
        <mxCell id="rD5OIO8iTpBC_e0c4k-J-9" value="Multilevel model fitting and extraction of estimates&amp;nbsp;" style="rounded=1;whiteSpace=wrap;html=1;absoluteArcSize=1;arcSize=14;strokeWidth=1;enumerate=0;enumerateValue=2;strokeColor=#6c8ebf;" parent="rD5OIO8iTpBC_e0c4k-J-7" vertex="1">
          <mxGeometry x="100" y="142" width="130" height="70" as="geometry" />
        </mxCell>
        <mxCell id="rD5OIO8iTpBC_e0c4k-J-10" value="Calculation of AAFBF and extraction of Bayes factor and PMP" style="rounded=1;whiteSpace=wrap;html=1;absoluteArcSize=1;arcSize=14;strokeWidth=1;enumerate=0;enumerateValue=3;strokeColor=#6c8ebf;" parent="rD5OIO8iTpBC_e0c4k-J-7" vertex="1">
          <mxGeometry x="100" y="240" width="130" height="70" as="geometry" />
        </mxCell>
        <mxCell id="61VirxYgKSYSKrvKkUt1-2" style="edgeStyle=orthogonalEdgeStyle;rounded=0;orthogonalLoop=1;jettySize=auto;html=1;entryX=0.5;entryY=0;entryDx=0;entryDy=0;strokeWidth=2;strokeColor=#6c8ebf;" edge="1" parent="rD5OIO8iTpBC_e0c4k-J-7" source="rD5OIO8iTpBC_e0c4k-J-14" target="rD5OIO8iTpBC_e0c4k-J-9">
          <mxGeometry relative="1" as="geometry" />
        </mxCell>
        <mxCell id="rD5OIO8iTpBC_e0c4k-J-14" value="Generation of n datasets when H&lt;sub&gt;1&amp;nbsp;&lt;/sub&gt;is true" style="rounded=1;whiteSpace=wrap;html=1;absoluteArcSize=1;arcSize=14;strokeWidth=1;enumerate=0;enumerateValue=1;strokeColor=#6c8ebf;" parent="rD5OIO8iTpBC_e0c4k-J-7" vertex="1">
          <mxGeometry x="105" y="45" width="120" height="60" as="geometry" />
        </mxCell>
        <mxCell id="rD5OIO8iTpBC_e0c4k-J-19" value="1" style="shape=ellipse;html=1;dashed=0;whiteSpace=wrap;perimeter=ellipsePerimeter;fillColor=#b0e3e6;strokeColor=#0e8088;rounded=0;" parent="rD5OIO8iTpBC_e0c4k-J-7" vertex="1">
          <mxGeometry x="113" y="85" width="20" height="20" as="geometry" />
        </mxCell>
        <mxCell id="rD5OIO8iTpBC_e0c4k-J-20" value="2" style="shape=ellipse;html=1;dashed=0;whiteSpace=wrap;perimeter=ellipsePerimeter;fillColor=#b0e3e6;strokeColor=#0e8088;rounded=0;" parent="rD5OIO8iTpBC_e0c4k-J-7" vertex="1">
          <mxGeometry x="108" y="191" width="20" height="20" as="geometry" />
        </mxCell>
        <mxCell id="rD5OIO8iTpBC_e0c4k-J-21" value="3" style="shape=ellipse;html=1;dashed=0;whiteSpace=wrap;perimeter=ellipsePerimeter;fillColor=#b0e3e6;strokeColor=#0e8088;rounded=0;" parent="rD5OIO8iTpBC_e0c4k-J-7" vertex="1">
          <mxGeometry x="104" y="289" width="20" height="20" as="geometry" />
        </mxCell>
        <mxCell id="rD5OIO8iTpBC_e0c4k-J-22" value="No" style="edgeStyle=orthogonalEdgeStyle;rounded=0;orthogonalLoop=1;jettySize=auto;html=1;exitX=0;exitY=0.5;exitDx=0;exitDy=0;exitPerimeter=0;fontSize=15;strokeColor=#9673a6;strokeWidth=2;fontColor=#9673a6;" parent="1" source="rD5OIO8iTpBC_e0c4k-J-24" target="rD5OIO8iTpBC_e0c4k-J-25" edge="1">
          <mxGeometry relative="1" as="geometry" />
        </mxCell>
        <mxCell id="rD5OIO8iTpBC_e0c4k-J-23" value="No" style="edgeStyle=orthogonalEdgeStyle;rounded=0;orthogonalLoop=1;jettySize=auto;html=1;fontSize=15;entryX=0;entryY=0.5;entryDx=0;entryDy=0;strokeColor=#6c8ebf;strokeWidth=2;fontColor=#6c8ebf;" parent="1" source="rD5OIO8iTpBC_e0c4k-J-24" target="rD5OIO8iTpBC_e0c4k-J-38" edge="1">
          <mxGeometry relative="1" as="geometry">
            <mxPoint x="1040" y="566" as="targetPoint" />
          </mxGeometry>
        </mxCell>
        <mxCell id="rD5OIO8iTpBC_e0c4k-J-24" value="Is the power criterion met?&lt;br&gt;P(BF&amp;gt;BF&lt;sub style=&quot;border-color: var(--border-color);&quot;&gt;thresh&lt;/sub&gt;|H&lt;span style=&quot;font-size: 10px;&quot;&gt;&lt;sub&gt;1&lt;/sub&gt;&lt;/span&gt;) ≥ η" style="strokeWidth=1;html=1;shape=mxgraph.flowchart.decision;whiteSpace=wrap;enumerate=0;enumerateValue=4;shadow=0;rounded=0;strokeColor=#d6b656;fillColor=#ffffff;fillStyle=auto;" parent="1" vertex="1">
          <mxGeometry x="452" y="491" width="260" height="120" as="geometry" />
        </mxCell>
        <mxCell id="rD5OIO8iTpBC_e0c4k-J-25" value="Update the cluster size with binary search algorithm" style="rounded=1;whiteSpace=wrap;html=1;absoluteArcSize=1;arcSize=14;strokeWidth=1;enumerate=0;enumerateValue=5;strokeColor=#9673a6;" parent="1" vertex="1">
          <mxGeometry x="10" y="511" width="100" height="80" as="geometry" />
        </mxCell>
        <mxCell id="rD5OIO8iTpBC_e0c4k-J-26" style="edgeStyle=orthogonalEdgeStyle;rounded=0;orthogonalLoop=1;jettySize=auto;html=1;entryX=1;entryY=0.5;entryDx=0;entryDy=0;exitX=0.5;exitY=0;exitDx=0;exitDy=0;strokeColor=#6c8ebf;strokeWidth=2;" parent="1" source="rD5OIO8iTpBC_e0c4k-J-38" target="rD5OIO8iTpBC_e0c4k-J-14" edge="1">
          <mxGeometry relative="1" as="geometry">
            <Array as="points">
              <mxPoint x="1100" y="192" />
            </Array>
            <mxPoint x="1100" y="462" as="sourcePoint" />
          </mxGeometry>
        </mxCell>
        <mxCell id="rD5OIO8iTpBC_e0c4k-J-27" value="Yes" style="edgeStyle=orthogonalEdgeStyle;rounded=0;orthogonalLoop=1;jettySize=auto;html=1;entryX=0.5;entryY=0.5;entryDx=0;entryDy=-15;entryPerimeter=0;strokeWidth=2;fontSize=14;fillColor=#bac8d3;strokeColor=#707982;" parent="1" source="rD5OIO8iTpBC_e0c4k-J-24" target="rD5OIO8iTpBC_e0c4k-J-33" edge="1">
          <mxGeometry relative="1" as="geometry">
            <mxPoint x="582" y="646" as="targetPoint" />
          </mxGeometry>
        </mxCell>
        <mxCell id="rD5OIO8iTpBC_e0c4k-J-29" value="" style="edgeStyle=orthogonalEdgeStyle;rounded=0;orthogonalLoop=1;jettySize=auto;html=1;exitX=0.5;exitY=1;exitDx=0;exitDy=0;entryX=0.5;entryY=0;entryDx=0;entryDy=0;strokeColor=#9673a6;strokeWidth=2;" parent="1" edge="1" source="rD5OIO8iTpBC_e0c4k-J-12">
          <mxGeometry relative="1" as="geometry">
            <mxPoint x="483" y="222" as="sourcePoint" />
            <mxPoint x="397" y="259" as="targetPoint" />
            <Array as="points">
              <mxPoint x="397" y="240" />
              <mxPoint x="397" y="240" />
            </Array>
          </mxGeometry>
        </mxCell>
        <mxCell id="rD5OIO8iTpBC_e0c4k-J-30" style="edgeStyle=orthogonalEdgeStyle;rounded=0;orthogonalLoop=1;jettySize=auto;html=1;strokeWidth=2;strokeColor=#707982;" parent="1" source="rD5OIO8iTpBC_e0c4k-J-32" target="rD5OIO8iTpBC_e0c4k-J-1" edge="1">
          <mxGeometry relative="1" as="geometry" />
        </mxCell>
        <mxCell id="rD5OIO8iTpBC_e0c4k-J-31" style="edgeStyle=orthogonalEdgeStyle;rounded=0;orthogonalLoop=1;jettySize=auto;html=1;strokeWidth=2;strokeColor=#707982;" parent="1" source="rD5OIO8iTpBC_e0c4k-J-32" target="rD5OIO8iTpBC_e0c4k-J-7" edge="1">
          <mxGeometry relative="1" as="geometry" />
        </mxCell>
        <mxCell id="rD5OIO8iTpBC_e0c4k-J-32" value="&lt;h4&gt;User input&lt;/h4&gt;" style="html=1;dashed=0;whiteSpace=wrap;shape=mxgraph.dfd.start;rounded=0;fillColor=#fff2cc;strokeColor=#d6b656;" parent="1" vertex="1">
          <mxGeometry x="542" y="22" width="80" height="30" as="geometry" />
        </mxCell>
        <mxCell id="rD5OIO8iTpBC_e0c4k-J-33" value="&lt;h4&gt;Print final sample size&lt;/h4&gt;" style="html=1;dashed=0;whiteSpace=wrap;shape=mxgraph.dfd.start;rounded=0;fillColor=#fff2cc;strokeColor=#d6b656;" parent="1" vertex="1">
          <mxGeometry x="542" y="686" width="80" height="30" as="geometry" />
        </mxCell>
        <mxCell id="rD5OIO8iTpBC_e0c4k-J-34" style="edgeStyle=orthogonalEdgeStyle;rounded=0;orthogonalLoop=1;jettySize=auto;html=1;entryX=0.5;entryY=0;entryDx=0;entryDy=0;entryPerimeter=0;strokeWidth=2;strokeColor=#9673a6;" parent="1" source="rD5OIO8iTpBC_e0c4k-J-4" target="rD5OIO8iTpBC_e0c4k-J-24" edge="1">
          <mxGeometry relative="1" as="geometry" />
        </mxCell>
        <mxCell id="rD5OIO8iTpBC_e0c4k-J-36" value="4" style="shape=ellipse;html=1;dashed=0;whiteSpace=wrap;perimeter=ellipsePerimeter;fillColor=#b0e3e6;strokeColor=#0e8088;rounded=0;" parent="1" vertex="1">
          <mxGeometry x="572" y="500" width="20" height="20" as="geometry" />
        </mxCell>
        <mxCell id="rD5OIO8iTpBC_e0c4k-J-37" value="5" style="shape=ellipse;html=1;dashed=0;whiteSpace=wrap;perimeter=ellipsePerimeter;fillColor=#b0e3e6;strokeColor=#0e8088;rounded=0;" parent="1" vertex="1">
          <mxGeometry x="15" y="570" width="20" height="20" as="geometry" />
        </mxCell>
        <mxCell id="rD5OIO8iTpBC_e0c4k-J-38" value="Update the number of cluster with binary search algorithm" style="rounded=1;whiteSpace=wrap;html=1;absoluteArcSize=1;arcSize=14;strokeWidth=1;enumerate=0;enumerateValue=5;strokeColor=#6c8ebf;" parent="1" vertex="1">
          <mxGeometry x="1050" y="511" width="100" height="80" as="geometry" />
        </mxCell>
        <mxCell id="rD5OIO8iTpBC_e0c4k-J-39" value="5" style="shape=ellipse;html=1;dashed=0;whiteSpace=wrap;perimeter=ellipsePerimeter;fillColor=#b0e3e6;strokeColor=#0e8088;rounded=0;" parent="1" vertex="1">
          <mxGeometry x="1054" y="570" width="20" height="20" as="geometry" />
        </mxCell>
        <mxCell id="rD5OIO8iTpBC_e0c4k-J-40" value="" style="edgeStyle=orthogonalEdgeStyle;rounded=0;orthogonalLoop=1;jettySize=auto;html=1;entryX=0;entryY=0.5;entryDx=0;entryDy=0;strokeColor=#9673a6;strokeWidth=2;" parent="1" source="rD5OIO8iTpBC_e0c4k-J-25" target="rD5OIO8iTpBC_e0c4k-J-12" edge="1">
          <mxGeometry relative="1" as="geometry">
            <Array as="points">
              <mxPoint x="60" y="192" />
            </Array>
            <mxPoint x="60" y="497" as="sourcePoint" />
            <mxPoint x="253" y="192" as="targetPoint" />
          </mxGeometry>
        </mxCell>
        <mxCell id="rD5OIO8iTpBC_e0c4k-J-41" style="edgeStyle=orthogonalEdgeStyle;rounded=0;orthogonalLoop=1;jettySize=auto;html=1;entryX=0.5;entryY=0;entryDx=0;entryDy=0;entryPerimeter=0;strokeWidth=2;strokeColor=#6c8ebf;" parent="1" source="rD5OIO8iTpBC_e0c4k-J-10" target="rD5OIO8iTpBC_e0c4k-J-24" edge="1">
          <mxGeometry relative="1" as="geometry" />
        </mxCell>
      </root>
    </mxGraphModel>
  </diagram>
</mxfile>
